PathFileType	4	(X/Y/Z)	../Python\walking\Walking10\task.trc
DataRate	CameraRate	NumFrames	NumMarkers	Units	OrigDataRate	OrigDataStartFrame	OrigNumFrames
200.000000	200.000000	6	30	mm	200.000000	373	598
Frame#	Time	CLAV			STRN			RASI			LASI			RTH1			RTH2			RTH3			RTB1			RTB3			RD5M			RTOE			LTH1			LTH2			LTH3			LTB1			LTB2			LTB3			LTOE			LD5M			RTB2			T10			RHEE			C7			PE02			PE03			RPSI			LPSI			PE01			RBAK			LHEE			
		X1	Y1	Z1	X2	Y2	Z2	X3	Y3	Z3	X4	Y4	Z4	X5	Y5	Z5	X6	Y6	Z6	X7	Y7	Z7	X8	Y8	Z8	X9	Y9	Z9	X10	Y10	Z10	X11	Y11	Z11	X12	Y12	Z12	X13	Y13	Z13	X14	Y14	Z14	X15	Y15	Z15	X16	Y16	Z16	X17	Y17	Z17	X18	Y18	Z18	X19	Y19	Z19	X20	Y20	Z20	X21	Y21	Z21	X22	Y22	Z22	X23	Y23	Z23	X24	Y24	Z24	X25	Y25	Z25	X26	Y26	Z26	X27	Y27	Z27	X28	Y28	Z28	X29	Y29	Z29	X30	Y30	Z30	

374	1.865	1491.806762695313	1419.778564453125	189.0425262451172	1548.589477539063	1228.385620117188	210.3846282958986	1519.623657226563	999.8777465820317	353.9307861328126	1534.336547851563	1027.332153320313	82.37995147705081	1454.930053710938	731.9808349609377	383.0223083496095	1395.362426757813	715.9556884765627	374.5202941894532	1410.246826171875	668.5352783203127	364.4536743164064	1289.93408203125	369.6077880859376	329.7860107421876	1227.491943359375	321.6116333007814	321.2047729492189	1021.937683105469	69.85248565673831	307.6866149902345	1058.651977539063	45.76625823974611	268.4242553710939	1517.849731445313	718.3137817382815	44.48229598999025	1499.445922851563	673.8424072265627	56.4479675292969	1556.611206054688	652.2080078125002	64.3603439331055	1556.901000976563	355.4851684570314	94.86050415039065	1531.608642578125	314.4136657714845	107.9723663330079	1585.139282226563	283.0126037597657	107.6031036376954	1745.163208007813	33.8897171020508	178.6939086914063	1698.908691406251	19.89118385314942	130.3431091308594	1228.535278320313	371.5137634277345	328.9630126953126	1322.069091796875	1249.508666992188	201.1776123046876	977.685668945313	225.7077484130861	246.0572814941407	1374.882568359375	1508.083984375	172.1865386962891	1355.084106445313	1043.649658203125	242.404754638672	1351.986572265625	1047.8203125	191.4958801269532	1360.708129882813	1054.110595703125	266.6280212402345	1357.706298828125	1063.060180664063	166.4961853027344	1365.678833007813	1105.6787109375	220.3423309326173	1355.223754882813	1431.763305664063	352.7301330566407	1531.36865234375	34.98328018188478	189.4566802978516	
375	1.87	1498.408813476563	1420.446411132813	188.7671203613282	1555.018798828126	1228.948852539063	210.1587219238282	1525.955688476563	1000.218933105469	353.3697204589845	1540.458251953126	1028.347778320313	81.77174377441409	1464.25439453125	731.677917480469	382.3894958496095	1404.990966796875	714.7400512695315	373.5950927734376	1420.659057617188	667.464782714844	363.8699951171876	1302.902099609375	369.2434997558595	329.9295959472657	1239.888671875	321.9528808593751	321.363983154297	1030.588256835938	73.48550415039065	308.2070617675782	1066.686401367188	48.22613906860354	269.0364074707032	1522.122436523438	718.7947998046877	43.91343307495119	1503.204711914063	674.5242309570315	55.77221298217776	1560.048950195313	652.2567138671877	63.88370132446292	1558.515625000001	355.5247192382814	94.39168548583987	1533.013305664063	314.659881591797	107.7095947265626	1586.289794921876	282.8914489746095	107.1593246459962	1745.217895507813	33.82786178588869	178.5720977783204	1698.833984375001	19.79463958740235	130.1936798095704	1241.54248046875	371.766326904297	329.5992736816407	1328.583740234375	1250.306274414063	200.8934173583986	988.4504394531255	230.1678466796876	247.1954345703126	1381.514770507813	1508.801879882813	171.8614959716797	1361.30078125	1043.9912109375	242.2435455322267	1358.164428710938	1048.262939453125	191.3531036376954	1366.98388671875	1054.3955078125	266.4775695800782	1363.850830078125	1063.657104492188	166.4134674072266	1371.87548828125	1106.105102539063	220.3239898681642	1361.8037109375	1432.575927734375	352.391815185547	1531.31494140625	34.97497177124025	189.5141906738282	
376	1.875	1504.97314453125	1421.102416992188	188.5108795166016	1561.382568359376	1229.484741210938	209.9472961425782	1532.213256835938	1000.612365722657	352.8395996093751	1546.536621093751	1029.285888671875	81.17024993896487	1473.468383789063	731.497009277344	381.8111267089845	1414.531372070313	713.6548461914065	372.6700744628907	1430.981201171875	666.5532836914065	363.2871398925782	1316.012573242188	368.9728393554689	330.0381164550782	1252.471801757813	322.3431091308595	321.4759216308595	1039.949951171875	77.06247711181643	308.8361816406251	1075.656005859375	50.75318908691409	269.790008544922	1526.096557617188	719.2125244140627	43.40071105957033	1506.669555664063	675.145446777344	55.16547775268558	1563.193969726563	652.2500000000002	63.40423583984378	1560.058349609376	355.5360107421876	93.89611816406253	1534.355224609375	314.8811340332032	107.4303894042969	1587.376953125001	282.749725341797	106.688949584961	1745.268920898438	33.75354003906251	178.453842163086	1698.772338867188	19.68081092834473	130.0416259765626	1254.692749023438	372.0600585937501	330.2077636718751	1335.037963867188	1251.116088867188	200.5901031494142	999.469116210938	234.2901916503907	248.1153259277345	1388.123901367188	1509.527099609375	171.5492248535157	1367.460571289063	1044.343383789063	242.0384368896486	1364.28857421875	1048.705688476563	191.1644287109376	1373.194458007813	1054.694458007813	266.2806396484376	1369.946166992188	1064.242431640625	166.2837524414063	1378.026123046875	1106.53466796875	220.2526855468751	1368.33740234375	1433.382568359375	352.0605468750001	1531.264770507813	34.97599411010744	189.5583801269532	
377	1.88	1511.498657226563	1421.746826171875	188.2728271484376	1567.683837890626	1229.996337890625	209.7483673095704	1538.402954101563	1001.059387207032	352.3379821777345	1552.573852539063	1030.148193359375	80.57670593261722	1482.563354492188	731.4427490234377	381.2891540527345	1423.974609375	712.7097778320315	371.7464904785157	1441.198974609375	665.8104248046877	362.7049255371095	1329.24609375	368.808563232422	330.1138305664064	1265.222900390625	322.7922973632814	321.5458068847657	1050.00732421875	80.55255126953128	309.5721435546876	1085.52197265625	53.31000518798831	270.6856994628907	1529.820068359375	719.5814208984377	42.93664169311525	1509.901733398438	675.7154541015627	54.61615371704104	1566.118530273438	652.214050292969	62.9208793640137	1561.535766601563	355.5294799804689	93.38133239746097	1535.64013671875	315.0854492187501	107.1355361938477	1588.409912109376	282.597381591797	106.1996688842774	1745.317016601563	33.6697463989258	178.3430938720704	1698.723754882813	19.55543327331544	129.8888244628907	1267.965454101563	372.4087829589845	330.7773742675782	1341.433715820313	1251.935424804688	200.267303466797	1010.733703613282	238.0537719726564	248.8023376464845	1394.708740234375	1510.258178710938	171.2493591308594	1373.569580078125	1044.710693359375	241.7899627685548	1370.363525390625	1049.153564453125	190.9303588867188	1379.345947265625	1055.011596679688	266.0380859375001	1375.9970703125	1064.820068359375	166.1067199707032	1384.135864257813	1106.971069335938	220.1285705566407	1374.82373046875	1434.181030273438	351.7353515625001	1531.218017578125	34.98612213134767	189.5898437500001	
378	1.885	1517.984497070313	1422.380126953125	188.0518493652344	1573.926025390626	1230.48681640625	209.5596771240236	1544.531494140626	1001.561157226563	351.8617553710939	1558.571777343751	1030.93701171875	79.99176788330081	1491.532836914063	731.517517089844	380.8243713378907	1433.314086914063	711.9112548828127	370.825653076172	1451.30126953125	665.241882324219	362.123260498047	1342.58447265625	368.7613525390626	330.1596984863282	1278.124389648438	323.3079528808595	321.5796203613282	1060.738159179688	83.92582702636722	310.4096984863282	1096.236083984375	55.85838699340823	271.7221069335939	1533.347534179688	719.9156494140627	42.51243972778322	1512.96630859375	676.2439575195315	54.11153030395511	1568.896484375001	652.1719970703127	62.43410491943362	1562.954589843751	355.5149230957032	92.85545349121097	1536.873291015626	315.2795410156251	106.8251571655274	1589.398193359376	282.4441223144532	105.7003784179688	1745.362426757813	33.57968521118165	178.2427978515626	1698.687377929688	19.42391204833985	129.7373199462891	1281.340942382813	372.8242492675782	331.2975158691407	1347.773681640625	1252.761962890625	199.9248657226564	1022.237487792969	241.4415130615236	249.2505340576173	1401.268188476563	1510.99365234375	170.9615020751954	1379.63330078125	1045.09765625	241.4996032714845	1376.39453125	1049.611572265625	190.652328491211	1385.444580078125	1055.3515625	265.7516174316407	1382.0078125	1065.393676757813	165.883041381836	1390.209350585938	1107.418090820313	219.9525146484376	1381.261962890625	1434.969360351563	351.4151916503907	1531.174072265625	35.00471115112306	189.6094512939454	
379	1.89	1524.430297851563	1423.0029296875	187.8466796875001	1580.112792968751	1230.9599609375	209.3786926269532	1550.605834960938	1002.118103027344	351.4071655273439	1564.531982421876	1031.65625	79.41548156738284	1500.372680664063	731.7214965820315	380.4165649414064	1442.54541015625	711.2623291015627	369.9089660644532	1461.280517578125	664.8489990234377	361.5421447753907	1356.010375976563	368.8395996093751	330.1792907714845	1291.16064453125	323.8948974609376	321.5836791992189	1072.114624023438	87.15393066406253	311.3405761718751	1107.744384765625	58.36063385009768	272.8956909179689	1536.735717773438	720.228210449219	42.11872482299806	1515.927612304688	676.7407226562502	53.6387748718262	1571.598266601563	652.1430664062502	61.94576644897464	1564.320922851563	355.500701904297	92.32673645019534	1538.060180664063	315.4685668945314	106.4987945556641	1590.351074218751	282.2986755371095	105.2008819580079	1745.405029296876	33.48646163940431	178.1549072265626	1698.661987304688	19.29110527038575	129.5891418457032	1294.800903320313	373.3152465820314	331.7584533691407	1354.060424804688	1253.59326171875	199.5628814697267	1033.974853515625	244.4400482177736	249.4623413085939	1407.801147460938	1511.732177734375	170.6851654052735	1385.657348632813	1045.508666992188	241.1696624755861	1382.38623046875	1050.08447265625	190.3326721191407	1391.496459960938	1055.718383789063	265.4236755371095	1387.98291015625	1065.967041015625	165.6142578125001	1396.251220703125	1107.87939453125	219.7260742187501	1387.652099609375	1435.745727539063	351.0991210937501	1531.1328125	35.03083801269533	189.6183166503907	
